<svg width="1500" height="680" viewBox="0 0 1500 680" fill="none" xmlns="http://www.w3.org/2000/svg">
    <path fill-rule="evenodd" clip-rule="evenodd"
        d="M170.12 377.52V301.13C170.131 297.033 171.763 293.107 174.66 290.21C177.557 287.313 181.483 285.681 185.58 285.67H374.76C378.857 285.681 382.783 287.313 385.68 290.21C388.577 293.107 390.21 297.033 390.22 301.13V377.52C390.212 381.62 388.582 385.549 385.684 388.45C382.787 391.351 378.86 392.987 374.76 393H185.58C181.481 392.989 177.554 391.356 174.656 388.457C171.759 385.557 170.128 381.629 170.12 377.53V377.52Z"
        fill="#E30613" />
    <path fill-rule="evenodd" clip-rule="evenodd"
        d="M438.12 377.52V301.13C438.131 297.033 439.763 293.107 442.66 290.21C445.557 287.313 449.483 285.681 453.58 285.67H642.76C646.857 285.681 650.783 287.313 653.68 290.21C656.577 293.107 658.21 297.033 658.22 301.13V377.52C658.212 381.62 656.581 385.549 653.684 388.45C650.787 391.351 646.86 392.987 642.76 393H453.58C449.482 392.987 445.556 391.352 442.659 388.454C439.763 385.555 438.131 381.628 438.12 377.53V377.52Z"
        fill="#E30613" />
    <path fill-rule="evenodd" clip-rule="evenodd"
        d="M304.12 531.28V454.88C304.133 450.784 305.766 446.859 308.663 443.963C311.559 441.066 315.484 439.433 319.58 439.42H508.76C512.856 439.433 516.781 441.066 519.677 443.963C522.574 446.859 524.207 450.784 524.22 454.88V531.28C524.21 535.377 522.577 539.303 519.68 542.2C516.783 545.097 512.857 546.729 508.76 546.74H319.58C315.483 546.729 311.557 545.097 308.66 542.2C305.763 539.303 304.131 535.377 304.12 531.28Z"
        fill="#E30613" />
    <path fill-rule="evenodd" clip-rule="evenodd"
        d="M304.12 225.12V148.72C304.131 144.623 305.763 140.697 308.66 137.8C311.557 134.903 315.483 133.271 319.58 133.26H508.76C512.857 133.271 516.783 134.903 519.68 137.8C522.577 140.697 524.21 144.623 524.22 148.72V225.12C524.207 229.216 522.574 233.141 519.677 236.037C516.781 238.934 512.856 240.567 508.76 240.58H319.58C315.484 240.567 311.559 238.934 308.663 236.037C305.766 233.141 304.133 229.216 304.12 225.12Z"
        fill="#E30613" />
    <path fill-rule="evenodd" clip-rule="evenodd"
        d="M169.75 225.47V148.38C169.763 144.39 171.354 140.567 174.176 137.746C176.997 134.924 180.82 133.333 184.81 133.32H246.05C250.039 133.333 253.861 134.924 256.681 137.746C259.501 140.568 261.089 144.391 261.1 148.38V225.47C261.076 229.45 259.481 233.259 256.663 236.068C253.844 238.877 250.03 240.459 246.05 240.47H184.81C180.829 240.46 177.014 238.878 174.194 236.069C171.373 233.26 169.776 229.45 169.75 225.47Z"
        fill="#E30613" />
    <path fill-rule="evenodd" clip-rule="evenodd"
        d="M566.65 225.52V148.43C566.66 144.441 568.249 140.618 571.069 137.796C573.889 134.974 577.711 133.383 581.7 133.37H642.94C646.93 133.383 650.753 134.974 653.574 137.796C656.396 140.617 657.987 144.44 658 148.43V225.52C657.987 229.509 656.395 233.331 653.574 236.151C650.752 238.971 646.929 240.559 642.94 240.57H581.7C577.712 240.559 573.89 238.97 571.07 236.15C568.249 233.33 566.66 229.508 566.65 225.52Z"
        fill="#E30613" />
    <path fill-rule="evenodd" clip-rule="evenodd"
        d="M170.12 531.63V454.54C170.131 450.559 171.712 446.744 174.521 443.924C177.331 441.103 181.14 439.506 185.12 439.48H246.36C250.341 439.506 254.15 441.103 256.959 443.924C259.768 446.744 261.35 450.559 261.36 454.54V531.63C261.336 535.601 259.749 539.403 256.941 542.211C254.133 545.018 250.331 546.606 246.36 546.63H185.17C181.199 546.606 177.398 545.018 174.59 542.211C171.782 539.403 170.194 535.601 170.17 531.63H170.12Z"
        fill="#E30613" />
    <path fill-rule="evenodd" clip-rule="evenodd"
        d="M566.8 531.63V454.54C566.813 450.55 568.404 446.727 571.225 443.906C574.047 441.084 577.87 439.493 581.86 439.48H643.1C647.08 439.506 650.889 441.103 653.698 443.924C656.508 446.744 658.089 450.559 658.1 454.54V531.63C658.076 535.601 656.488 539.403 653.68 542.211C650.872 545.018 647.071 546.606 643.1 546.63H581.86C577.879 546.62 574.064 545.038 571.244 542.229C568.423 539.42 566.826 535.611 566.8 531.63Z"
        fill="#E30613" />
    <path
        d="M846.28 346.66H820.51L765.65 210.2H791.42L833.42 312.11L875.42 210.2H901.19L846.28 346.66ZM939.4 346.66H917.54V242.8H939.4V346.66ZM918.9 222.11C916.688 219.855 915.324 216.904 915.041 213.757C914.757 210.611 915.572 207.463 917.345 204.849C919.119 202.235 921.743 200.315 924.771 199.416C927.8 198.517 931.046 198.693 933.959 199.916C936.872 201.138 939.272 203.331 940.752 206.122C942.232 208.913 942.7 212.131 942.077 215.228C941.454 218.325 939.778 221.111 937.334 223.113C934.89 225.115 931.829 226.209 928.67 226.21C926.848 226.229 925.041 225.875 923.361 225.17C921.681 224.465 920.163 223.423 918.9 222.11ZM1025.5 263.3C1014.7 263.3 1006.56 266.813 1001.09 273.84C995.617 280.867 992.883 290.303 992.89 302.15V346.66H971V242.8H992.86V263.69C996.292 257.284 1001.21 251.797 1007.21 247.69C1012.83 243.673 1019.53 241.43 1026.44 241.25L1026.64 263.31L1025.5 263.3ZM1075.5 260.37V313.08C1075.5 318.027 1076.8 321.963 1079.4 324.89C1082 327.817 1085.64 329.283 1090.33 329.29C1095 329.29 1099.49 327.01 1103.8 322.45L1112.8 337.88C1105.13 344.767 1096.64 348.213 1087.33 348.22C1082.91 348.298 1078.53 347.482 1074.43 345.822C1070.34 344.162 1066.62 341.692 1063.51 338.56C1056.94 332.12 1053.66 323.433 1053.65 312.5V260.37H1040.57V242.8H1053.65V210.2H1075.52V242.8H1102.85V260.37H1075.5ZM1202.76 299V242.8H1224.63V346.66H1202.76V327.72C1199.37 333.926 1194.38 339.105 1188.3 342.713C1182.22 346.32 1175.28 348.223 1168.21 348.22C1156.49 348.22 1147.02 344.643 1139.8 337.49C1132.58 330.337 1128.97 320.003 1128.97 306.49V242.8H1150.83V299.8C1150.83 318.933 1158.77 328.5 1174.65 328.5C1181.94 328.596 1188.99 325.906 1194.37 320.98C1199.97 315.973 1202.77 308.64 1202.76 298.98V299ZM1330.25 315.59C1330.25 325.477 1326.67 333.383 1319.51 339.31C1312.35 345.237 1303.18 348.207 1292 348.22C1283.99 348.144 1276.04 346.759 1268.48 344.12C1260.67 341.568 1253.37 337.669 1246.91 332.6L1257.45 315.6C1269.55 324.713 1281.26 329.27 1292.59 329.27C1297.53 329.27 1301.43 328.13 1304.3 325.85C1305.66 324.847 1306.75 323.535 1307.5 322.024C1308.25 320.513 1308.62 318.846 1308.6 317.16C1308.6 311.96 1301.7 307.293 1287.9 303.16C1287.13 302.86 1286.35 302.6 1285.56 302.38C1263.95 296.52 1253.15 286.757 1253.15 273.09C1253.15 263.463 1256.89 255.753 1264.38 249.96C1271.87 244.167 1281.59 241.27 1293.56 241.27C1305.69 241.306 1317.53 244.977 1327.56 251.81L1319.36 268.02C1311.24 262.522 1301.65 259.595 1291.84 259.62C1286.63 259.62 1282.4 260.563 1279.15 262.45C1277.62 263.262 1276.35 264.49 1275.49 265.992C1274.62 267.494 1274.2 269.209 1274.27 270.94C1274.27 274.327 1275.96 276.8 1279.34 278.36C1282.5 279.812 1285.81 280.925 1289.2 281.68C1293.43 282.72 1297.18 283.76 1300.43 284.8C1303.68 285.84 1306.84 287.013 1309.9 288.32C1313.35 289.837 1316.65 291.668 1319.76 293.79C1326.78 298.457 1330.29 305.743 1330.3 315.65L1330.25 315.59ZM835.54 410.51V525.89H812.54V410.51H771.12V389.43H876.93V410.51H835.54ZM953.26 442.51C942.46 442.51 934.327 446.023 928.86 453.05C923.393 460.077 920.66 469.513 920.66 481.36V525.87H898.8V422H920.66V442.89C924.087 436.48 929.009 430.991 935.01 426.89C940.63 422.866 947.33 420.622 954.24 420.45L954.44 442.51H953.26ZM998.17 525.87H976.3V422H998.17V525.89V525.87ZM977.67 401.31C975.46 399.056 974.098 396.106 973.816 392.962C973.534 389.818 974.349 386.673 976.122 384.061C977.895 381.449 980.518 379.532 983.545 378.634C986.571 377.737 989.815 377.914 992.726 379.137C995.636 380.36 998.034 382.552 999.511 385.342C1000.99 388.131 1001.46 391.346 1000.83 394.441C1000.21 397.536 998.532 400.319 996.089 402.319C993.646 404.318 990.587 405.41 987.43 405.41C985.609 405.432 983.803 405.079 982.124 404.374C980.445 403.668 978.929 402.626 977.67 401.31ZM1075.87 527.43C1061.98 527.653 1048.57 522.351 1038.58 512.69C1028.19 502.897 1023 490.05 1023 474.15C1023 458.25 1028.43 445.333 1039.3 435.4C1050.17 425.453 1063.42 420.477 1079.03 420.47C1094.64 420.463 1107.85 425.863 1118.66 436.67L1105.78 452.48C1096.8 444.667 1087.75 440.763 1078.64 440.77C1069.86 440.644 1061.37 443.894 1054.92 449.85C1048.22 455.897 1044.87 463.707 1044.87 473.28C1044.83 477.805 1045.7 482.291 1047.42 486.476C1049.15 490.661 1051.69 494.46 1054.89 497.651C1058.1 500.842 1061.92 503.36 1066.11 505.058C1070.3 506.756 1074.8 507.6 1079.32 507.54C1089.02 507.54 1098.16 503.113 1106.75 494.26L1119.64 508.32C1107.01 521.073 1092.44 527.45 1075.91 527.45L1075.87 527.43ZM1164.4 498.43C1170.58 504.737 1178.42 507.893 1187.93 507.9C1197.44 507.907 1205.28 504.75 1211.45 498.43C1217.63 492.117 1220.72 483.95 1220.73 473.93C1220.74 463.91 1217.64 455.743 1211.45 449.43C1205.27 443.117 1197.43 439.96 1187.93 439.96C1178.43 439.96 1170.59 443.117 1164.4 449.43C1158.22 455.737 1155.13 463.903 1155.13 473.93C1155.13 483.957 1158.22 492.123 1164.4 498.43ZM1227 511.93C1216.59 522.277 1203.59 527.45 1188 527.45C1172.41 527.45 1159.41 522.277 1149 511.93C1138.59 501.583 1133.38 488.917 1133.38 473.93C1133.38 458.943 1138.59 446.277 1149 435.93C1159.41 425.577 1172.41 420.403 1188 420.41C1203.59 420.417 1216.59 425.613 1227 436C1237.41 446.34 1242.62 459.007 1242.62 474C1242.62 488.993 1237.41 501.66 1227 512V511.93ZM1292.8 439.6V492.31C1292.8 497.263 1294.1 501.2 1296.7 504.12C1299.3 507.04 1302.94 508.503 1307.63 508.51C1312.3 508.51 1316.79 506.233 1321.1 501.68L1330.1 517.1C1322.42 524 1313.93 527.45 1304.63 527.45C1300.21 527.528 1295.83 526.712 1291.73 525.052C1287.64 523.392 1283.92 520.922 1280.81 517.79C1274.23 511.343 1270.94 502.653 1270.95 491.72V439.6H1257.87V422H1270.95V389.4H1292.82V422H1320.15V439.6H1292.8Z"
        fill="#fff" />
</svg>