<svg width="140" height="62" viewBox="0 0 140 62" fill="none" xmlns="http://www.w3.org/2000/svg">
<path fill-rule="evenodd" clip-rule="evenodd" d="M3.69839 34.4726V25.1427C3.69954 24.7274 3.38509 24.2702 3.69839 23.9765C4.01169 23.6828 4.42852 23.9775 4.87159 23.9765H27.1623C27.6054 23.9775 28.0222 23.6828 28.3355 23.9765C28.6488 24.2702 28.3344 24.7274 28.3355 25.1427V34.4726C28.3347 34.8882 28.6488 35.3448 28.3355 35.6389C28.0222 35.9329 27.6057 35.6375 27.1623 35.6389H4.87159C4.42833 35.6378 4.01172 35.9328 3.69839 35.6389C3.38506 35.345 3.69925 34.8881 3.69839 34.4726Z" fill="#E30613"/>
<path fill-rule="evenodd" clip-rule="evenodd" d="M34.5457 34.4726V25.1427C34.5469 24.7274 34.2324 24.2702 34.5457 23.9765C34.859 23.6828 35.2759 23.9775 35.7189 23.9765H58.0097C58.4528 23.9775 58.8696 23.6828 59.1829 23.9765C59.4962 24.2702 59.1818 24.7274 59.1829 25.1427V34.4726C59.1821 34.8882 59.4962 35.3448 59.1829 35.6389C58.8696 35.9329 58.4531 35.6375 58.0097 35.6389H35.7189C35.2758 35.6375 34.859 35.9327 34.5457 35.6389C34.2325 35.345 34.5469 34.8881 34.5457 34.4726Z" fill="#E30613"/>
<path fill-rule="evenodd" clip-rule="evenodd" d="M19.1221 52.3572V43.0272C19.1236 42.6119 18.8089 42.1546 19.1221 41.8609C19.4354 41.5673 19.8524 41.8623 20.2954 41.8609H42.5862C43.0292 41.8623 43.4462 41.5673 43.7594 41.8609C44.0727 42.1546 43.758 42.6119 43.7594 43.0272V52.3572C43.7583 52.7726 44.0727 53.2298 43.7594 53.5235C43.4461 53.8172 43.0293 53.5224 42.5862 53.5235H20.2954C19.8523 53.5224 19.4355 53.8172 19.1221 53.5235C18.8088 53.2298 19.1233 52.7726 19.1221 52.3572Z" fill="#E30613"/>
<path fill-rule="evenodd" clip-rule="evenodd" d="M19.1221 16.588V7.25799C19.1233 6.8426 18.8088 6.38546 19.1221 6.09173C19.4355 5.79801 19.8523 6.0928 20.2954 6.09173H42.5862C43.0293 6.0928 43.4461 5.79801 43.7594 6.09173C44.0727 6.38546 43.7583 6.8426 43.7594 7.25799V16.588C43.758 17.0033 44.0727 17.4606 43.7594 17.7543C43.4462 18.0479 43.0292 17.7529 42.5862 17.7543H20.2954C19.8524 17.7529 19.4354 18.0479 19.1221 17.7543C18.8089 17.4606 19.1236 17.0033 19.1221 16.588Z" fill="#E30613"/>
<path fill-rule="evenodd" clip-rule="evenodd" d="M3.69112 16.5908V7.25566C3.69251 6.84953 3.39389 6.37596 3.69112 6.08878C3.98836 5.8016 4.42792 6.09012 4.84828 6.08878H12.9484C13.3686 6.09012 13.8084 5.80157 14.1055 6.08878C14.4026 6.37599 14.1044 6.84962 14.1055 7.25566V16.5908C14.103 16.9958 14.4025 17.4717 14.1055 17.7577C13.8086 18.0436 13.3676 17.7566 12.9484 17.7577H4.84828C4.42893 17.7566 3.98824 18.0436 3.69112 17.7577C3.39401 17.4717 3.6939 16.9959 3.69112 16.5908Z" fill="#E30613"/>
<path fill-rule="evenodd" clip-rule="evenodd" d="M48.7758 16.5904V7.25556C48.7769 6.84976 48.4788 6.37574 48.7758 6.0887C49.0729 5.80166 49.5127 6.09004 49.933 6.0887H58.033C58.4534 6.09004 58.893 5.80169 59.1902 6.0887C59.4874 6.37571 59.1888 6.84966 59.1902 7.25556V16.5904C59.1888 16.9962 59.4875 17.4704 59.1902 17.7572C58.8929 18.0441 58.4533 17.7562 58.033 17.7572H49.933C49.5128 17.7562 49.0729 18.0441 48.7758 17.7572C48.4787 17.4704 48.777 16.9961 48.7758 16.5904Z" fill="#E30613"/>
<path fill-rule="evenodd" clip-rule="evenodd" d="M3.6908 52.3603V43.0247C3.6919 42.6194 3.39443 42.1449 3.6908 41.8577C3.98717 41.5706 4.42807 41.8604 4.84802 41.8577H12.9486C13.3686 41.8604 13.8095 41.5706 14.1058 41.8577C14.4022 42.1449 14.1047 42.6194 14.1058 43.0247V52.3603C14.1033 52.7646 14.4021 53.2414 14.1058 53.5273C13.8096 53.8131 13.3675 53.5249 12.9486 53.5273H4.84802C4.42907 53.5249 3.98705 53.8131 3.6908 53.5273C3.39455 53.2414 3.69329 52.7646 3.6908 52.3603Z" fill="#E30613"/>
<path fill-rule="evenodd" clip-rule="evenodd" d="M48.7759 52.3601V43.0249C48.7773 42.6188 48.4785 42.1452 48.7759 41.8581C49.0734 41.5709 49.5125 41.8594 49.9331 41.8581H58.0334C58.4531 41.8607 58.8945 41.571 59.1906 41.8581C59.4868 42.1451 59.1895 42.6198 59.1906 43.0249V52.3601C59.1881 52.7642 59.4867 53.2411 59.1906 53.5269C58.8946 53.8128 58.4521 53.5245 58.0334 53.5269H49.9331C49.5135 53.5259 49.0732 53.8129 48.7759 53.5269C48.4786 53.241 48.7787 52.7652 48.7759 52.3601Z" fill="#E30613"/>
<path d="M81.8643 29.8214H78.305L72.3728 14.3934H75.9321L80.6779 26.2611L85.4236 14.3934H87.7965L81.8643 29.8214ZM92.5423 29.8214H90.1694V17.9537H92.5423V29.8214ZM90.1694 15.5802C89.9137 15.3232 90.2022 14.752 90.1694 14.3934C89.9644 14.6913 90.1367 14.0349 90.1694 14.3934C90.3744 14.0955 89.8194 13.3091 90.1694 13.2067C90.5194 13.1042 91.0192 13.0674 91.3559 13.2067C91.6925 13.346 92.3713 14.0754 92.5423 14.3934C92.7133 14.7115 92.6143 15.2273 92.5423 15.5802C92.4703 15.9331 92.8247 15.3521 92.5423 15.5802C92.2599 15.8083 91.7209 16.7669 91.3559 16.767C91.1453 16.7691 90.3636 16.8473 90.1694 16.767C89.9752 16.6866 90.3154 15.7299 90.1694 15.5802ZM102.034 20.3273C100.786 20.3273 100.293 20.7133 99.6609 21.514C99.0284 22.3147 98.4737 23.7244 98.4745 25.0743V29.8214H96.1016V17.9537H98.4745V20.3273C98.8712 19.5973 100.154 19.6085 100.847 19.1405C101.497 18.6828 101.235 17.9743 102.034 17.9537V20.3273ZM107.966 20.3273V26.2611C107.966 26.8248 108.852 27.1144 109.152 27.4479C109.453 27.7814 109.797 28.6339 110.339 28.6347C110.878 28.6347 111.027 27.9675 111.525 27.4479L112.712 29.8214C111.825 30.6062 110.228 31.0074 109.152 31.0082C108.642 31.017 108.439 30.0106 107.966 29.8214C107.493 29.6323 107.14 30.1783 106.78 29.8214C106.021 29.0876 105.594 27.507 105.593 26.2611V20.3273H104.407V17.9537H105.593V14.3934H107.966V17.9537H111.525V20.3273H107.966ZM123.39 25.0743V17.9537H125.763V29.8214H123.39V28.6347C122.998 29.3418 121.719 29.4103 121.017 29.8214C120.314 30.2325 119.461 31.0085 118.644 31.0082C117.29 31.0082 115.919 30.6365 115.085 29.8214C114.25 29.0063 113.898 26.6142 113.898 25.0743V17.9537H117.458V25.0743C117.458 27.2546 117.995 28.6347 119.83 28.6347C120.673 28.6456 121.582 28.0093 122.203 27.4479C122.85 26.8774 123.391 26.1751 123.39 25.0743ZM137.627 26.2611C137.627 27.3877 137.268 29.1461 136.441 29.8214C135.613 30.4968 134.173 31.0067 132.881 31.0082C131.955 30.9996 131.383 30.1222 130.508 29.8214C129.606 29.5306 128.882 29.2123 128.136 28.6347L129.322 26.2611C130.72 27.2996 131.572 28.6347 132.881 28.6347C133.452 28.6347 133.736 27.7077 134.068 27.4479C134.224 27.3336 135.168 27.6201 135.254 27.4479C135.257 27.64 135.341 27.2757 135.254 27.4479C135.254 26.8553 134.476 25.5453 132.881 25.0743C132.793 25.0402 132.973 25.0994 132.881 25.0743C130.384 24.4066 128.136 23.0714 128.136 21.514C128.136 20.4171 129.643 19.8007 130.508 19.1405C131.374 18.4803 131.498 17.9537 132.881 17.9537C134.283 17.9578 136.468 18.3619 137.627 19.1405L136.441 21.514C135.502 20.8876 134.015 20.3245 132.881 20.3273C132.279 20.3273 132.07 20.1123 131.695 20.3273C131.518 20.4198 131.795 21.3429 131.695 21.514C131.595 21.6852 131.687 21.3168 131.695 21.514C131.695 21.9 131.304 22.523 131.695 22.7008C132.06 22.8662 132.489 22.6147 132.881 22.7008C133.371 22.8193 133.692 22.5823 134.068 22.7008C134.444 22.8193 134.901 23.7387 135.254 23.8876C135.653 24.0604 136.081 23.6457 136.441 23.8876C137.252 24.4193 137.626 25.1322 137.627 26.2611ZM80.6779 38.1288V51.1833H78.305V38.1288H73.5592V35.7553H85.4236V38.1288H80.6779ZM93.7287 41.6891C92.4806 41.6891 91.9876 42.0752 91.3559 42.8759C90.7241 43.6766 90.1694 45.0862 90.1694 46.4362V51.1833H87.7965V39.3156H90.1694V41.6891C90.5654 40.9587 90.6624 39.7829 91.3559 39.3156C92.0054 38.857 92.9301 39.3352 93.7287 39.3156V41.6891ZM99.6609 51.1833H97.2881V39.3156H99.6609V51.1833ZM97.2881 36.942C97.0326 36.6852 96.1342 36.1135 96.1016 35.7553C96.069 35.397 97.0831 34.8661 97.2881 34.5685C96.9383 34.6708 97.493 34.2709 97.2881 34.5685C97.6378 34.4662 98.1381 34.4292 98.4745 34.5685C98.8109 34.7078 99.4902 34.2506 99.6609 34.5685C99.8317 34.8864 99.733 35.4026 99.6609 35.7553C99.5889 36.1079 98.7568 36.7142 98.4745 36.942C98.1922 37.1699 98.8393 36.9421 98.4745 36.942C98.2641 36.9445 97.4821 37.0224 97.2881 36.942C97.4336 37.0919 97.094 36.8617 97.2881 36.942ZM107.966 51.1833C106.361 51.2086 105.561 51.0974 104.407 49.9965C103.206 48.8805 102.034 47.0612 102.034 45.2494C102.034 43.4376 103.151 41.6342 104.407 40.5023C105.663 39.3689 107.348 39.3163 109.152 39.3156C110.957 39.3148 111.463 39.2709 112.712 40.5023L111.525 42.8759C110.488 41.9855 109.019 41.6883 107.966 41.6891C106.952 41.6747 106.339 41.0104 105.593 41.6891C104.819 42.3781 104.407 44.1585 104.407 45.2494C104.403 45.765 104.208 45.9593 104.407 46.4362C104.606 46.913 105.222 47.2593 105.593 47.6229C105.964 47.9865 106.295 48.6162 106.78 48.8097C107.264 49.0032 108.63 48.8166 109.152 48.8097C110.273 48.8097 110.533 48.6318 111.525 47.6229L112.712 48.8097C111.253 50.263 109.876 51.1833 107.966 51.1833ZM118.644 47.6229C119.358 48.3416 119.918 48.809 121.017 48.8097C122.116 48.8105 122.676 48.3431 123.39 47.6229C124.104 46.9035 124.575 46.3912 124.576 45.2494C124.577 44.1076 124.105 42.4085 123.39 41.6891C122.676 40.9697 122.115 40.5023 121.017 40.5023C119.919 40.5023 119.359 40.9697 118.644 41.6891C117.93 42.4078 117.458 44.1069 117.458 45.2494C117.458 46.392 117.93 46.9043 118.644 47.6229ZM125.763 48.8097C124.559 49.9887 122.818 51.1833 121.017 51.1833C119.216 51.1833 117.475 49.9887 116.271 48.8097C115.068 47.6307 115.085 46.9571 115.085 45.2494C115.085 43.5417 115.068 41.6813 116.271 40.5023C117.474 39.3226 119.215 39.3148 121.017 39.3156C122.819 39.3163 124.56 39.3188 125.763 40.5023C126.966 41.6806 126.949 43.5409 126.949 45.2494C126.949 46.9579 126.966 47.6315 125.763 48.8097ZM132.881 40.5023V47.6229C132.881 48.1874 133.767 48.477 134.068 48.8097C134.368 49.1424 134.713 48.809 135.254 48.8097C135.793 48.8097 135.942 48.1418 136.441 47.6229L137.627 49.9965C136.739 50.7827 135.142 51.1833 134.068 51.1833C133.557 51.1921 133.354 51.3724 132.881 51.1833C132.408 50.9941 132.055 50.3534 131.695 49.9965C130.934 49.2619 130.508 48.8688 130.508 47.6229V40.5023H129.322V39.3156H130.508V35.7553H132.881V39.3156H136.441V40.5023H132.881Z" fill="white"/>
</svg>
