<svg width="118" height="52" viewBox="0 0 118 52" fill="none" xmlns="http://www.w3.org/2000/svg">
<path fill-rule="evenodd" clip-rule="evenodd" d="M3.11721 28.9125V21.0874C3.11818 20.7391 2.85315 20.3556 3.11721 20.1093C3.38128 19.863 3.73261 20.1102 4.10605 20.1093H22.894C23.2674 20.1102 23.6187 19.863 23.8828 20.1093C24.1469 20.3556 23.8818 20.7391 23.8828 21.0874V28.9125C23.8821 29.2611 24.1469 29.644 23.8828 29.8906C23.6187 30.1373 23.2676 29.8895 22.894 29.8906H4.10605C3.73245 29.8897 3.38131 30.1371 3.11721 29.8906C2.85312 29.6441 3.11794 29.261 3.11721 28.9125Z" fill="#E30613"/>
<path fill-rule="evenodd" clip-rule="evenodd" d="M29.1172 28.9125V21.0874C29.1181 20.7391 28.8531 20.3556 29.1172 20.1093C29.3812 19.863 29.7325 20.1102 30.106 20.1093H48.894C49.2674 20.1102 49.6187 19.863 49.8828 20.1093C50.1469 20.3556 49.8818 20.7391 49.8828 21.0874V28.9125C49.8821 29.2611 50.1469 29.644 49.8828 29.8906C49.6187 30.1373 49.2676 29.8895 48.894 29.8906H30.106C29.7325 29.8895 29.3812 30.1371 29.1172 29.8906C28.8531 29.6442 29.1181 29.2609 29.1172 28.9125Z" fill="#E30613"/>
<path fill-rule="evenodd" clip-rule="evenodd" d="M16.1172 43.9126V36.0874C16.1184 35.739 15.8531 35.3555 16.1172 35.1092C16.3812 34.8629 16.7326 35.1103 17.106 35.1092H35.894C36.2674 35.1103 36.6188 34.8629 36.8828 35.1092C37.1469 35.3555 36.8816 35.739 36.8828 36.0874V43.9126C36.8819 44.261 37.1469 44.6444 36.8828 44.8907C36.6188 45.1371 36.2675 44.8898 35.894 44.8907H17.106C16.7325 44.8898 16.3812 45.1371 16.1172 44.8907C15.8531 44.6444 16.1181 44.261 16.1172 43.9126Z" fill="#E30613"/>
<path fill-rule="evenodd" clip-rule="evenodd" d="M16.1172 13.9126V6.08744C16.1181 5.73905 15.8531 5.35564 16.1172 5.10929C16.3812 4.86294 16.7325 5.11019 17.106 5.10929H35.894C36.2675 5.11019 36.6188 4.86294 36.8828 5.10929C37.1469 5.35564 36.8819 5.73905 36.8828 6.08744V13.9126C36.8816 14.261 37.1469 14.6445 36.8828 14.8908C36.6188 15.1371 36.2674 14.8897 35.894 14.8908H17.106C16.7326 14.8897 16.3812 15.1371 16.1172 14.8908C15.8531 14.6445 16.1184 14.261 16.1172 13.9126Z" fill="#E30613"/>
<path fill-rule="evenodd" clip-rule="evenodd" d="M3.11109 13.9149V6.08549C3.11226 5.74486 2.86056 5.34767 3.11109 5.10681C3.36161 4.86595 3.7321 5.10794 4.0864 5.10681H10.9136C11.2678 5.10794 11.6385 4.86592 11.8889 5.10681C12.1393 5.3477 11.888 5.74494 11.8889 6.08549V13.9149C11.8868 14.2547 12.1392 14.6538 11.8889 14.8936C11.6386 15.1334 11.267 14.8927 10.9136 14.8936H4.0864C3.73295 14.8927 3.36151 15.1334 3.11109 14.8936C2.86066 14.6538 3.11343 14.2547 3.11109 13.9149Z" fill="#E30613"/>
<path fill-rule="evenodd" clip-rule="evenodd" d="M41.1111 13.9146V6.0854C41.112 5.74505 40.8607 5.34749 41.1111 5.10675C41.3615 4.866 41.7322 5.10787 42.0864 5.10675H48.9136C49.2679 5.10787 49.6384 4.86603 49.8889 5.10675C50.1394 5.34747 49.8877 5.74497 49.8889 6.0854V13.9146C49.8877 14.255 50.1395 14.6527 49.8889 14.8933C49.6384 15.1338 49.2678 14.8924 48.9136 14.8933H42.0864C41.7323 14.8924 41.3615 15.1339 41.1111 14.8933C40.8607 14.6527 41.112 14.2549 41.1111 13.9146Z" fill="#E30613"/>
<path fill-rule="evenodd" clip-rule="evenodd" d="M3.11081 43.9151V36.0853C3.11174 35.7454 2.86102 35.3474 3.11081 35.1065C3.36061 34.8657 3.73222 35.1088 4.08619 35.1065H10.9138C11.2678 35.1088 11.6394 34.8657 11.8892 35.1065C12.139 35.3474 11.8883 35.7454 11.8892 36.0853V43.9151C11.8871 44.2542 12.1389 44.6541 11.8892 44.8939C11.6395 45.1336 11.2669 44.8919 10.9138 44.8939H4.08619C3.73307 44.8919 3.36051 45.1336 3.11081 44.8939C2.86112 44.6541 3.11291 44.2542 3.11081 43.9151Z" fill="#E30613"/>
<path fill-rule="evenodd" clip-rule="evenodd" d="M41.1112 43.9149V36.0855C41.1123 35.7449 40.8605 35.3477 41.1112 35.1068C41.3619 34.8659 41.732 35.1079 42.0865 35.1068H48.9139C49.2676 35.1091 49.6397 34.866 49.8893 35.1068C50.1389 35.3476 49.8883 35.7457 49.8893 36.0855V43.9149C49.8872 44.2539 50.1388 44.6539 49.8893 44.8936C49.6398 45.1333 49.2668 44.8916 48.9139 44.8936H42.0865C41.7328 44.8927 41.3618 45.1334 41.1112 44.8936C40.8606 44.6538 41.1135 44.2547 41.1112 43.9149Z" fill="#E30613"/>
<path d="M69 25.0114H66L61 12.0718H64L68 22.0254L72 12.0718H74L69 25.0114ZM78 25.0114H76V15.0579H78V25.0114ZM76 13.0672C75.7845 12.8517 76.0276 12.3725 76 12.0718C75.8272 12.3217 75.9724 11.7711 76 12.0718C76.1728 11.822 75.705 11.1624 76 11.0765C76.295 10.9905 76.7163 10.9596 77 11.0765C77.2837 11.1933 77.8559 11.8051 78 12.0718C78.1441 12.3386 78.0607 12.7712 78 13.0672C77.9393 13.3632 78.238 12.8759 78 13.0672C77.762 13.2585 77.3077 14.0624 77 14.0625C76.8225 14.0644 76.1637 14.1299 76 14.0625C75.8363 13.9952 76.123 13.1927 76 13.0672ZM86 17.0486C84.948 17.0486 84.5331 17.3724 84 18.044C83.4669 18.7155 82.9994 19.8978 83 21.03V25.0114H81V15.0579H83V17.0486C83.3343 16.4364 84.416 16.4457 85 16.0532C85.5478 15.6693 85.327 15.0751 86 15.0579V17.0486ZM91 17.0486V22.0254C91 22.4981 91.7467 22.741 92 23.0207C92.2533 23.3004 92.5435 24.0154 93 24.0161C93.4546 24.0161 93.5799 23.4565 94 23.0207L95 25.0114C94.2526 25.6696 92.9065 26.0062 92 26.0068C91.5698 26.0142 91.3987 25.1701 91 25.0114C90.6013 24.8528 90.3034 25.3108 90 25.0114C89.3604 24.396 89.0006 23.0703 89 22.0254V17.0486H88V15.0579H89V12.0718H91V15.0579H94V17.0486H91ZM104 21.03V15.0579H106V25.0114H104V24.0161C103.67 24.6092 102.592 24.6667 102 25.0114C101.408 25.3562 100.689 26.007 100 26.0068C98.8584 26.0068 97.7033 25.6951 97 25.0114C96.2967 24.3278 96 22.3215 96 21.03V15.0579H99V21.03C99 22.8586 99.4532 24.0161 101 24.0161C101.71 24.0253 102.476 23.4916 103 23.0207C103.545 22.5422 104.001 21.9532 104 21.03ZM116 22.0254C116 22.9703 115.697 24.445 115 25.0114C114.303 25.5779 113.089 26.0055 112 26.0068C111.22 25.9996 110.737 25.2637 110 25.0114C109.24 24.7676 108.629 24.5006 108 24.0161L109 22.0254C110.179 22.8963 110.897 24.0161 112 24.0161C112.481 24.0161 112.721 23.2386 113 23.0207C113.132 22.9249 113.927 23.1651 114 23.0207C114.002 23.1818 114.073 22.8763 114 23.0207C114 22.5238 113.344 21.425 112 21.03C111.925 21.0013 112.077 21.051 112 21.03C109.895 20.47 108 19.3501 108 18.044C108 17.1239 109.271 16.6069 110 16.0532C110.729 15.4996 110.834 15.0579 112 15.0579C113.182 15.0613 115.024 15.4002 116 16.0532L115 18.044C114.209 17.5185 112.955 17.0463 112 17.0486C111.492 17.0486 111.316 16.8683 111 17.0486C110.851 17.1262 111.084 17.9004 111 18.044C110.916 18.1875 110.993 17.8785 111 18.044C111 18.3676 110.671 18.8902 111 19.0393C111.308 19.1781 111.669 18.9671 112 19.0393C112.412 19.1387 112.683 18.9399 113 19.0393C113.317 19.1387 113.702 19.9098 114 20.0347C114.336 20.1796 114.697 19.8318 115 20.0347C115.684 20.4807 115.999 21.0786 116 22.0254ZM68 31.9789V42.9278H66V31.9789H62V29.9882H72V31.9789H68ZM79 34.965C77.948 34.965 77.5325 35.2888 77 35.9603C76.4675 36.6319 76 37.8142 76 38.9464V42.9278H74V32.9743H76V34.965C76.3338 34.3524 76.4155 33.3662 77 32.9743C77.5475 32.5897 78.3269 32.9907 79 32.9743V34.965ZM84 42.9278H82V32.9743H84V42.9278ZM82 30.9836C81.7847 30.7681 81.0275 30.2887 81 29.9882C80.9725 29.6877 81.8273 29.2425 82 28.9928C81.7052 29.0786 82.1727 28.7432 82 28.9928C82.2948 28.9071 82.7165 28.876 83 28.9928C83.2835 29.1097 83.8561 28.7262 84 28.9928C84.1439 29.2595 84.0608 29.6924 84 29.9882C83.9392 30.284 83.238 30.7925 83 30.9836C82.762 31.1747 83.3075 30.9836 83 30.9836C82.8226 30.9856 82.1635 31.051 82 30.9836C82.1226 31.1093 81.8365 30.9162 82 30.9836ZM91 42.9278C89.6468 42.9491 88.9726 42.8558 88 41.9325C86.9883 40.9965 86 39.4706 86 37.951C86 36.4314 86.9415 34.919 88 33.9696C89.0591 33.019 90.4792 32.9749 92 32.9743C93.5208 32.9736 93.9474 32.9368 95 33.9696L94 35.9603C93.1253 35.2136 91.8877 34.9643 91 34.965C90.1449 34.9529 89.6283 34.3958 89 34.965C88.3474 35.5429 88 37.0361 88 37.951C87.9966 38.3835 87.8323 38.5464 88 38.9464C88.1677 39.3463 88.6875 39.6368 89 39.9417C89.3125 40.2467 89.5914 40.7748 90 40.9371C90.4086 41.0994 91.5593 40.9428 92 40.9371C92.9448 40.9371 93.1636 40.7879 94 39.9417L95 40.9371C93.7701 42.156 92.6098 42.9278 91 42.9278ZM100 39.9417C100.602 40.5445 101.074 40.9365 102 40.9371C102.926 40.9377 103.399 40.5458 104 39.9417C104.602 39.3384 104.999 38.9087 105 37.951C105.001 36.9934 104.603 35.5683 104 34.965C103.398 34.3616 102.925 33.9696 102 33.9696C101.075 33.9696 100.603 34.3616 100 34.965C99.398 35.5677 99 36.9928 99 37.951C99 38.9093 99.398 39.339 100 39.9417ZM106 40.9371C104.986 41.9259 103.518 42.9278 102 42.9278C100.482 42.9278 99.0143 41.9259 98 40.9371C96.9857 39.9483 97 39.3833 97 37.951C97 36.5187 96.9857 34.9585 98 33.9696C99.0137 32.9801 100.481 32.9736 102 32.9743C103.519 32.9749 104.986 32.9769 106 33.9696C107.014 34.9578 107 36.5181 107 37.951C107 39.384 107.014 39.9489 106 40.9371ZM112 33.9696V39.9417C112 40.4151 112.747 40.658 113 40.9371C113.253 41.2162 113.543 40.9365 114 40.9371C114.455 40.9371 114.58 40.3769 115 39.9417L116 41.9325C115.252 42.5919 113.906 42.9278 113 42.9278C112.57 42.9352 112.399 43.0865 112 42.9278C111.601 42.7692 111.303 42.2318 111 41.9325C110.359 41.3163 109.999 40.9867 110 39.9417V33.9696H109V32.9743H110V29.9882H112V32.9743H115V33.9696H112Z" fill="#1D1D1B"/>
</svg>
