<svg width="17" height="16" viewBox="0 0 17 16" fill="none" xmlns="http://www.w3.org/2000/svg">
<mask id="path-1-inside-1_2_59" fill="white">
<path d="M14.5 10.9467V13.3041C14.5 13.6541 14.2294 13.9445 13.8803 13.9691C13.5887 13.9897 13.3509 14 13.1667 14C7.2756 14 2.5 9.2244 2.5 3.33333C2.5 3.14914 2.5103 2.91125 2.5309 2.61967C2.55558 2.27059 2.84596 2 3.19591 2L5.5534 2C5.72452 2 5.86784 2.12961 5.88502 2.29987C5.90045 2.45271 5.91479 2.57543 5.92805 2.66801C6.0629 3.60981 6.33835 4.50624 6.73247 5.33535C6.79573 5.46843 6.75447 5.62773 6.63457 5.71337L5.1957 6.7412C6.07168 8.7874 7.7126 10.4283 9.7588 11.3043L10.7847 9.86793C10.8715 9.7466 11.0327 9.70487 11.1673 9.7688C11.9964 10.1626 12.8927 10.4377 13.8344 10.5723C13.9264 10.5855 14.0483 10.5997 14.2001 10.615C14.3704 10.6322 14.5 10.7755 14.5 10.9467Z"/>
</mask>
<path d="M14.5 10.9467V13.3041C14.5 13.6541 14.2294 13.9445 13.8803 13.9691C13.5887 13.9897 13.3509 14 13.1667 14C7.2756 14 2.5 9.2244 2.5 3.33333C2.5 3.14914 2.5103 2.91125 2.5309 2.61967C2.55558 2.27059 2.84596 2 3.19591 2L5.5534 2C5.72452 2 5.86784 2.12961 5.88502 2.29987C5.90045 2.45271 5.91479 2.57543 5.92805 2.66801C6.0629 3.60981 6.33835 4.50624 6.73247 5.33535C6.79573 5.46843 6.75447 5.62773 6.63457 5.71337L5.1957 6.7412C6.07168 8.7874 7.7126 10.4283 9.7588 11.3043L10.7847 9.86793C10.8715 9.7466 11.0327 9.70487 11.1673 9.7688C11.9964 10.1626 12.8927 10.4377 13.8344 10.5723C13.9264 10.5855 14.0483 10.5997 14.2001 10.615C14.3704 10.6322 14.5 10.7755 14.5 10.9467Z" fill="white"/>
<path d="M13.8803 13.9691L13.986 15.4654L13.9861 15.4654L13.8803 13.9691ZM2.5309 2.61967L1.03463 2.51388L1.03463 2.51396L2.5309 2.61967ZM5.88502 2.29987L4.3926 2.45046L4.3926 2.45049L5.88502 2.29987ZM5.92805 2.66801L7.4129 2.4554L7.4129 2.45536L5.92805 2.66801ZM6.73247 5.33535L5.37773 5.97932L5.37774 5.97933L6.73247 5.33535ZM6.63457 5.71337L5.76272 4.49277L5.76267 4.4928L6.63457 5.71337ZM5.1957 6.7412L4.32381 5.52063L3.3418 6.2221L3.81675 7.33153L5.1957 6.7412ZM9.7588 11.3043L9.16846 12.6833L10.278 13.1583L10.9794 12.1762L9.7588 11.3043ZM10.7847 9.86793L9.56445 8.99563L9.56411 8.99611L10.7847 9.86793ZM11.1673 9.7688L11.8109 8.41388L11.8106 8.41375L11.1673 9.7688ZM13.8344 10.5723L14.0474 9.08747L14.0465 9.08735L13.8344 10.5723ZM14.2001 10.615L14.3509 9.1226L14.3509 9.12259L14.2001 10.615ZM13 10.9467V13.3041L16 13.3041V10.9467L13 10.9467ZM13 13.3041C13 12.8668 13.3381 12.5037 13.7746 12.4729L13.9861 15.4654C15.1207 15.3852 16 14.4414 16 13.3041L13 13.3041ZM13.7746 12.4729C13.5006 12.4922 13.3015 12.5 13.1667 12.5L13.1667 15.5C13.4002 15.5 13.6769 15.4872 13.986 15.4654L13.7746 12.4729ZM13.1667 12.5C8.10403 12.5 4 8.39597 4 3.33333H1C1 10.0528 6.44717 15.5 13.1667 15.5L13.1667 12.5ZM4 3.33333C4 3.19861 4.0078 2.99957 4.02717 2.72538L1.03463 2.51396C1.0128 2.82293 1 3.09967 1 3.33333H4ZM4.02717 2.72545C3.99632 3.16175 3.63338 3.5 3.19591 3.5V0.5C2.05854 0.5 1.11484 1.37943 1.03463 2.51388L4.02717 2.72545ZM3.19591 3.5H5.5534V0.5L3.19591 0.5V3.5ZM5.5534 3.5C4.95424 3.5 4.45272 3.04626 4.3926 2.45046L7.37744 2.14927C7.28296 1.21296 6.4948 0.5 5.5534 0.5V3.5ZM4.3926 2.45049C4.40898 2.61273 4.42572 2.75863 4.4432 2.88067L7.4129 2.45536C7.40385 2.39222 7.39192 2.2927 7.37744 2.14924L4.3926 2.45049ZM4.44319 2.88063C4.59981 3.97443 4.91986 5.01608 5.37773 5.97932L8.0872 4.69139C7.75685 3.9964 7.52599 3.2452 7.4129 2.4554L4.44319 2.88063ZM5.37774 5.97933C5.12895 5.45597 5.29119 4.82957 5.76272 4.49277L7.50642 6.93398C8.21776 6.42588 8.4625 5.4809 8.0872 4.69138L5.37774 5.97933ZM5.76267 4.4928L4.32381 5.52063L6.06759 7.96177L7.50646 6.93395L5.76267 4.4928ZM3.81675 7.33153C4.84447 9.73219 6.7678 11.6555 9.16846 12.6833L10.3491 9.92539C8.6574 9.20113 7.29889 7.84261 6.57465 6.15087L3.81675 7.33153ZM10.9794 12.1762L12.0054 10.7398L9.56411 8.99611L8.53817 10.4325L10.9794 12.1762ZM12.005 10.7402C11.6694 11.2098 11.0455 11.3714 10.524 11.1238L11.8106 8.41375C11.0198 8.03831 10.0736 8.28341 9.56445 8.99563L12.005 10.7402ZM10.5238 11.1237C11.487 11.5812 12.5286 11.9009 13.6223 12.0572L14.0465 9.08735C13.2569 8.97453 12.5058 8.74396 11.8109 8.41388L10.5238 11.1237ZM13.6214 12.0571C13.7433 12.0746 13.8888 12.0912 14.0494 12.1074L14.3509 9.12259C14.2078 9.10815 14.1095 9.09637 14.0474 9.08747L13.6214 12.0571ZM14.0494 12.1074C13.4536 12.0472 13 11.5457 13 10.9467L16 10.9467C16 10.0054 15.2872 9.21718 14.3509 9.1226L14.0494 12.1074Z" fill="white" mask="url(#path-1-inside-1_2_59)"/>
</svg>
