<?xml version="1.0" standalone="no"?>
<!DOCTYPE svg PUBLIC "-//W3C//DTD SVG 20010904//EN"
 "http://www.w3.org/TR/2001/REC-SVG-20010904/DTD/svg10.dtd">
<svg version="1.0" xmlns="http://www.w3.org/2000/svg"
 width="260.000000pt" height="260.000000pt" viewBox="0 0 260.000000 260.000000"
 preserveAspectRatio="xMidYMid meet">
<metadata>
Created by potrace 1.14, written by Peter Selinger 2001-2017
</metadata>
<g transform="translate(0.000000,260.000000) scale(0.100000,-0.100000)"
fill="#000000" stroke="none">
<path d="M136 2340 c-1 -3 -1 -113 -1 -244 l1 -239 219 0 219 -1 0 244 -1 243
-217 1 c-120 1 -219 -1 -220 -4z"/>
<path d="M789 2340 c0 -3 -1 -113 -1 -244 l0 -239 517 0 518 -1 1 244 0 243
-517 1 c-284 1 -517 -1 -518 -4z"/>
<path d="M2036 2340 c-1 -3 -1 -113 -1 -244 l1 -240 219 1 219 0 0 243 0 243
-218 1 c-120 1 -219 -1 -220 -4z"/>
<path d="M136 1590 c0 -3 -1 -112 -1 -244 l0 -239 520 1 519 0 -1 242 -1 243
-517 1 c-284 1 -518 -1 -519 -4z"/>
<path d="M1436 1590 c-1 -3 -1 -112 -1 -243 l1 -239 519 1 519 0 0 242 -1 242
-517 1 c-285 1 -519 -1 -520 -4z"/>
<path d="M136 840 c-1 -3 -1 -113 -1 -244 l1 -240 219 0 219 1 0 243 0 244
-218 0 c-120 1 -219 -1 -220 -4z"/>
<path d="M789 840 c0 -3 -1 -113 -1 -244 l0 -239 518 0 518 0 -1 243 0 243
-517 1 c-284 1 -516 -1 -517 -4z"/>
<path d="M2036 840 c-1 -3 -1 -113 -1 -245 l1 -239 219 0 219 0 0 244 0 244
-218 0 c-120 1 -219 -1 -220 -4z"/>
</g>
</svg>
